<svg xmlns="http://www.w3.org/2000/svg" xmlns:xlink="http://www.w3.org/1999/xlink" width="600" zoomAndPan="magnify" viewBox="0 0 450 449.999984" height="600" preserveAspectRatio="xMidYMid meet" version="1.0"><defs><clipPath id="id1"><path d="M 313 125 L 447.699219 125 L 447.699219 324 L 313 324 Z M 313 125 " clip-rule="nonzero"/></clipPath><clipPath id="id2"><path d="M 2.199219 125 L 137 125 L 137 324 L 2.199219 324 Z M 2.199219 125 " clip-rule="nonzero"/></clipPath><clipPath id="id3"><path d="M 143 2.199219 L 307 2.199219 L 307 447.699219 L 143 447.699219 Z M 143 2.199219 " clip-rule="nonzero"/></clipPath></defs><g clip-path="url(#id1)"><path fill="rgb(98.81897%, 72.549438%, 15.689087%)" d="M 348.695312 125.964844 L 313.699219 160.96875 L 377.695312 224.972656 L 313.671875 288.972656 L 348.664062 323.96875 L 447.699219 224.972656 Z M 348.695312 125.964844 " fill-opacity="1" fill-rule="nonzero"/></g><g clip-path="url(#id2)"><path fill="rgb(98.81897%, 72.549438%, 15.689087%)" d="M 101.195312 323.96875 L 136.199219 288.972656 L 72.1875 224.972656 L 136.210938 160.96875 L 101.21875 125.964844 L 2.199219 224.972656 Z M 101.195312 323.96875 " fill-opacity="1" fill-rule="nonzero"/></g><g clip-path="url(#id3)"><path fill="rgb(98.81897%, 72.549438%, 15.689087%)" d="M 143.082031 434.917969 L 259.007812 2.246094 L 306.824219 15.054688 L 190.898438 447.730469 Z M 143.082031 434.917969 " fill-opacity="1" fill-rule="nonzero"/></g></svg>