<svg xmlns="http://www.w3.org/2000/svg" width="600" viewBox="0 0 450 450" height="600" version="1.0"><defs><clipPath id="a"><path d="M0 147h96.563v161.246H0zm0 0"/></clipPath><clipPath id="b"><path d="M353.535 147H450v161.246h-96.465zm0 0"/></clipPath></defs><g clip-path="url(#a)"><path fill="#FFBD59" d="M79.543 308.219L-.922 227.89l81.027-80.887 16.477 16.445-64.555 64.442 63.993 63.882-16.477 16.446"/></g><path d="M153.106 251.516V306h-40.453V156.266H161.7c40.695 0 61.046 14.75 61.046 44.25 0 17.343-8.468 30.761-25.406 40.25L240.98 306h-45.89l-31.75-54.484zm0-30.422h7.578c14.133 0 21.203-6.242 21.203-18.735 0-10.312-6.933-15.468-20.797-15.468h-7.984zM343.488 306h-88.89V156.266h88.89v32.468h-48.437v23.547h44.859v32.469h-44.86v28.266h48.438zm0 0" fill="#FFBD59"/><g clip-path="url(#b)"><path fill="#FFBD59" d="M370.445 308.219l80.47-80.328-81.028-80.887-16.477 16.445 64.555 64.442-63.996 63.882 16.476 16.446"/></g></svg>