<svg xmlns="http://www.w3.org/2000/svg" width="600" viewBox="0 0 450 450" height="600" version="1.0"><defs><clipPath id="a"><path d="M313 125h134.7v199H313zm0 0"/></clipPath><clipPath id="b"><path d="M2.2 125H137v199H2.2zm0 0"/></clipPath><clipPath id="c"><path d="M143 2.2h164v445.5H143zm0 0"/></clipPath></defs><g clip-path="url(#a)"><path fill="#FCB928" d="M348.695 125.965L313.7 160.969l63.996 64.004-64.023 64 34.992 34.996 99.035-98.996zm0 0"/></g><g clip-path="url(#b)"><path fill="#FCB928" d="M101.195 323.969l35.004-34.996-64.012-64 64.024-64.004-34.992-35.004-99.02 99.008zm0 0"/></g><g clip-path="url(#c)"><path fill="#FCB928" d="M143.082 434.918L259.008 2.246l47.816 12.809L190.898 447.73zm0 0"/></g></svg>