<svg xmlns="http://www.w3.org/2000/svg" xmlns:xlink="http://www.w3.org/1999/xlink" width="600" zoomAndPan="magnify" viewBox="0 0 450 449.999984" height="600" preserveAspectRatio="xMidYMid meet" version="1.0"><defs><g><g id="id1"/></g><clipPath id="id2"><path d="M 0 147 L 96.5625 147 L 96.5625 308.246094 L 0 308.246094 Z M 0 147 " clip-rule="nonzero"/></clipPath><clipPath id="id3"><path d="M 353.535156 147 L 450 147 L 450 308.246094 L 353.535156 308.246094 Z M 353.535156 147 " clip-rule="nonzero"/></clipPath></defs><g clip-path="url(#id2)"><path fill="rgb(100%, 74.119568%, 34.899902%)" d="M 79.542969 308.21875 L -0.921875 227.890625 L 80.105469 147.003906 L 96.582031 163.449219 L 32.027344 227.890625 L 96.019531 291.773438 L 79.542969 308.21875 " fill-opacity="1" fill-rule="nonzero"/></g><g fill="rgb(100%, 74.119568%, 34.899902%)" fill-opacity="1"><g transform="translate(96.465236, 305.999988)"><g><path d="M 56.640625 -54.484375 L 56.640625 0 L 16.1875 0 L 16.1875 -149.734375 L 65.234375 -149.734375 C 105.929688 -149.734375 126.28125 -134.984375 126.28125 -105.484375 C 126.28125 -88.140625 117.8125 -74.722656 100.875 -65.234375 L 144.515625 0 L 98.625 0 L 66.875 -54.484375 Z M 56.640625 -84.90625 L 64.21875 -84.90625 C 78.351562 -84.90625 85.421875 -91.148438 85.421875 -103.640625 C 85.421875 -113.953125 78.488281 -119.109375 64.625 -119.109375 L 56.640625 -119.109375 Z M 56.640625 -84.90625 "/></g></g></g><g fill="rgb(100%, 74.119568%, 34.899902%)" fill-opacity="1"><g transform="translate(238.409896, 305.999988)"><g><path d="M 105.078125 0 L 16.1875 0 L 16.1875 -149.734375 L 105.078125 -149.734375 L 105.078125 -117.265625 L 56.640625 -117.265625 L 56.640625 -93.71875 L 101.5 -93.71875 L 101.5 -61.25 L 56.640625 -61.25 L 56.640625 -32.984375 L 105.078125 -32.984375 Z M 105.078125 0 "/></g></g></g><g clip-path="url(#id3)"><path fill="rgb(100%, 74.119568%, 34.899902%)" d="M 370.445312 308.21875 L 450.914062 227.890625 L 369.886719 147.003906 L 353.410156 163.449219 L 417.964844 227.890625 L 353.96875 291.773438 L 370.445312 308.21875 " fill-opacity="1" fill-rule="nonzero"/></g></svg>